<svg width="6522" height="6522" viewBox="0 0 6522 6522" fill="none" xmlns="http://www.w3.org/2000/svg">
<circle cx="3261" cy="3261" r="3261" fill="url(#paint0_linear_2253_6592)"/>
<circle cx="3261" cy="3436.84" r="2886.94" fill="black" fill-opacity="0.25"/>
<g filter="url(#filter0_i_2253_6592)">
<circle cx="3261" cy="3261" r="2886.94" fill="url(#paint1_linear_2253_6592)"/>
</g>
<circle cx="3261" cy="3392.08" r="2477.72" fill="#FBF168"/>
<g filter="url(#filter1_i_2253_6592)">
<circle cx="3261" cy="3261" r="2477.72" fill="url(#paint2_linear_2253_6592)"/>
</g>
<g filter="url(#filter2_f_2253_6592)">
<path d="M3176.4 1688.05V1894.58H3343.76V1688.05H3176.4ZM1782.36 1894.58V2277.38H1931.6C1945.92 2775.65 2107.72 3265.91 2340.43 3641.54C2462.36 3838.35 2603.41 4004.09 2758.02 4123.61C2870.38 4210.47 2992.31 4273.42 3117.43 4301.3H1665.67L1856.45 4954.7H3176.4V5233.59H3343.76V4954.7H4662.67L4853.14 4301.3H3401.93C3527.05 4273.42 3648.98 4210.47 3761.35 4123.61C3915.95 4004.09 4057.01 3838.35 4178.94 3641.54C4411.64 3265.91 4573.22 2775.65 4587.52 2277.38H4733.25V1894.58H3176.4H1782.36ZM2101.35 2277.38H2285.44C2295 2605.67 2369.91 3077.39 2510.97 3485.36C2545.24 3586.55 2584.29 3683.77 2628.12 3773.81C2579.5 3713.25 2532.49 3646.32 2487.86 3574.6C2269.5 3220.81 2115.69 2750.69 2101.35 2277.38ZM2452 2277.38H2730.12C2734.11 2824 2769.97 3310.85 2842.49 3667.83C2863.21 3770.62 2887.12 3862.26 2914.21 3942.73C2820.18 3813.65 2738.89 3637.55 2670.35 3443.92C2535.67 3053.48 2462.36 2589.73 2452 2277.38ZM2897.48 2277.38H3176.4V4113.25C3164.45 4097.32 3151.7 4078.99 3139.74 4057.48C3090.33 3966.64 3044.11 3823.21 3008.25 3643.93C2937.32 3298.9 2901.46 2819.22 2897.48 2277.38ZM3343.76 2277.38H3621.88C3618.7 2819.22 3582.04 3298.9 3511.91 3643.93C3475.25 3823.21 3429.03 3966.64 3379.62 4057.48C3367.66 4078.99 3355.71 4097.32 3343.76 4113.25V2277.38ZM3789.24 2277.38H4067.37C4057.01 2589.73 3983.69 3053.48 3849.01 3443.92C3781.27 3637.55 3699.19 3813.65 3605.15 3942.73C3632.24 3862.26 3656.95 3770.62 3676.87 3667.83C3749.39 3310.85 3786.05 2824 3789.24 2277.38ZM4234.72 2277.38H4418.81C4403.67 2750.69 4250.66 3220.81 4032.3 3574.6C3987.67 3646.32 3939.86 3713.25 3892.04 3773.81C3935.08 3683.77 3974.13 3586.55 4008.39 3485.36C4150.25 3077.39 4224.36 2605.67 4234.72 2277.38ZM1879.56 4444.73H2153.94L2260.73 4811.27H1986.35L1879.56 4444.73ZM2326.08 4444.73H2600.22L2707.01 4811.27H2432.87L2326.08 4444.73ZM2772.36 4444.73H3176.4V4811.27H2879.15L2772.36 4444.73ZM3343.76 4444.73H3747.8L3641.01 4811.27H3343.76V4444.73ZM3919.93 4444.73H4193.28L4086.49 4811.27H3812.35L3919.93 4444.73ZM4365.42 4444.73H4639.56L4532.77 4811.27H4258.63L4365.42 4444.73Z" fill="black" fill-opacity="0.25"/>
</g>
<g filter="url(#filter3_i_2253_6592)">
<path d="M3176.4 1547.38V1753.91H3343.76V1547.38H3176.4ZM1782.36 1753.91V2136.71H1931.6C1945.92 2634.98 2107.72 3125.24 2340.43 3500.86C2462.36 3697.68 2603.41 3863.42 2758.02 3982.94C2870.38 4069.8 2992.31 4132.74 3117.43 4160.63H1665.67L1856.45 4814.03H3176.4V5092.91H3343.76V4814.03H4662.67L4853.14 4160.63H3401.93C3527.05 4132.74 3648.98 4069.8 3761.35 3982.94C3915.95 3863.42 4057.01 3697.68 4178.94 3500.86C4411.64 3125.24 4573.22 2634.98 4587.52 2136.71H4733.25V1753.91H3176.4H1782.36ZM2101.35 2136.71H2285.44C2295 2465 2369.91 2936.71 2510.97 3344.69C2545.24 3445.88 2584.29 3543.1 2628.12 3633.14C2579.5 3572.58 2532.49 3505.65 2487.86 3433.93C2269.5 3080.14 2115.69 2610.02 2101.35 2136.71ZM2452 2136.71H2730.12C2734.11 2683.33 2769.97 3170.18 2842.49 3527.16C2863.21 3629.95 2887.12 3721.58 2914.21 3802.06C2820.18 3672.98 2738.89 3496.88 2670.35 3303.25C2535.67 2912.81 2462.36 2449.06 2452 2136.71ZM2897.48 2136.71H3176.4V3972.58C3164.45 3956.65 3151.7 3938.32 3139.74 3916.81C3090.33 3825.97 3044.11 3682.54 3008.25 3503.26C2937.32 3158.23 2901.46 2678.54 2897.48 2136.71ZM3343.76 2136.71H3621.88C3618.7 2678.54 3582.04 3158.23 3511.91 3503.26C3475.25 3682.54 3429.03 3825.97 3379.62 3916.81C3367.66 3938.32 3355.71 3956.65 3343.76 3972.58V2136.71ZM3789.24 2136.71H4067.37C4057.01 2449.06 3983.69 2912.81 3849.01 3303.25C3781.27 3496.88 3699.19 3672.98 3605.15 3802.06C3632.24 3721.58 3656.95 3629.95 3676.87 3527.16C3749.39 3170.18 3786.05 2683.33 3789.24 2136.71ZM4234.72 2136.71H4418.81C4403.67 2610.02 4250.66 3080.14 4032.3 3433.93C3987.67 3505.65 3939.86 3572.58 3892.04 3633.14C3935.08 3543.1 3974.13 3445.88 4008.39 3344.69C4150.25 2936.71 4224.36 2465 4234.72 2136.71ZM1879.56 4304.06H2153.94L2260.73 4670.6H1986.35L1879.56 4304.06ZM2326.08 4304.06H2600.22L2707.01 4670.6H2432.87L2326.08 4304.06ZM2772.36 4304.06H3176.4V4670.6H2879.15L2772.36 4304.06ZM3343.76 4304.06H3747.8L3641.01 4670.6H3343.76V4304.06ZM3919.93 4304.06H4193.28L4086.49 4670.6H3812.35L3919.93 4304.06ZM4365.42 4304.06H4639.56L4532.77 4670.6H4258.63L4365.42 4304.06Z" fill="url(#paint3_linear_2253_6592)"/>
</g>
<path d="M4943.26 3299.98L4913.32 3293.51C4911.55 3293.13 4910.02 3292.03 4909.08 3290.48C4908.15 3288.92 4907.9 3287.05 4908.4 3285.31C4949.92 3138.97 5010.6 3054.2 5132.74 2978.01C5046.41 3005.03 4954.93 3065.69 4919.24 3168.54C4918.33 3171.17 4915.86 3172.94 4913.09 3172.95C4910.3 3172.98 4907.82 3171.23 4906.87 3168.63C4869.81 3066.47 4889.35 2985.47 4968.37 2913.7C5013.45 2874.61 5069.21 2859.75 5118.41 2846.65C5177.88 2830.81 5229.24 2817.13 5250.35 2767.46C5251.41 2764.96 5253.91 2763.37 5256.63 2763.47C5259.34 2763.57 5261.72 2765.33 5262.6 2767.9C5307.3 2898.28 5339.92 3025.2 5249.36 3144.72C5180.93 3222.28 5090.21 3245.37 4979.32 3213.66C4966.84 3240 4957.58 3266.68 4951.05 3295.04C4950.24 3298.54 4946.77 3300.74 4943.26 3299.98Z" fill="#276709" style="mix-blend-mode:exclusion"/>
<path d="M1678.5 3801.79L1707.51 3795.52C1709.23 3795.15 1710.72 3794.14 1711.65 3792.72C1712.57 3791.3 1712.84 3789.61 1712.39 3788.05C1674.38 3656.58 1616.99 3580.96 1500.12 3513.96C1583.12 3537.1 1670.6 3590.52 1703.6 3682.83C1704.44 3685.18 1706.79 3686.75 1709.48 3686.72C1712.17 3686.7 1714.59 3685.09 1715.54 3682.73C1752.81 3590.01 1735.1 3517.19 1659.8 3453.55C1616.83 3418.93 1563.18 3406.33 1515.85 3395.21C1458.64 3381.77 1409.22 3370.16 1389.55 3325.64C1388.56 3323.4 1386.18 3322.01 1383.54 3322.14C1380.92 3322.26 1378.6 3323.89 1377.71 3326.22C1332.66 3444.52 1299.33 3559.53 1385.08 3666.09C1450.06 3735.09 1537.35 3754.63 1644.92 3724.41C1656.59 3748 1665.15 3771.94 1671.05 3797.44C1671.78 3800.59 1675.1 3802.53 1678.5 3801.79Z" fill="#276709" style="mix-blend-mode:exclusion"/>
<defs>
<filter id="filter0_i_2253_6592" x="374.057" y="374.056" width="5773.89" height="5777.89" filterUnits="userSpaceOnUse" color-interpolation-filters="sRGB">
<feFlood flood-opacity="0" result="BackgroundImageFix"/>
<feBlend mode="normal" in="SourceGraphic" in2="BackgroundImageFix" result="shape"/>
<feColorMatrix in="SourceAlpha" type="matrix" values="0 0 0 0 0 0 0 0 0 0 0 0 0 0 0 0 0 0 127 0" result="hardAlpha"/>
<feOffset dy="39"/>
<feGaussianBlur stdDeviation="2"/>
<feComposite in2="hardAlpha" operator="arithmetic" k2="-1" k3="1"/>
<feColorMatrix type="matrix" values="0 0 0 0 0.984314 0 0 0 0 0.945098 0 0 0 0 0.407843 0 0 0 1 0"/>
<feBlend mode="normal" in2="shape" result="effect1_innerShadow_2253_6592"/>
</filter>
<filter id="filter1_i_2253_6592" x="783.279" y="783.279" width="4955.44" height="4959.44" filterUnits="userSpaceOnUse" color-interpolation-filters="sRGB">
<feFlood flood-opacity="0" result="BackgroundImageFix"/>
<feBlend mode="normal" in="SourceGraphic" in2="BackgroundImageFix" result="shape"/>
<feColorMatrix in="SourceAlpha" type="matrix" values="0 0 0 0 0 0 0 0 0 0 0 0 0 0 0 0 0 0 127 0" result="hardAlpha"/>
<feOffset dy="60"/>
<feGaussianBlur stdDeviation="2"/>
<feComposite in2="hardAlpha" operator="arithmetic" k2="-1" k3="1"/>
<feColorMatrix type="matrix" values="0 0 0 0 0 0 0 0 0 0 0 0 0 0 0 0 0 0 0.25 0"/>
<feBlend mode="normal" in2="shape" result="effect1_innerShadow_2253_6592"/>
</filter>
<filter id="filter2_f_2253_6592" x="1661.77" y="1684.15" width="3195.27" height="3553.34" filterUnits="userSpaceOnUse" color-interpolation-filters="sRGB">
<feFlood flood-opacity="0" result="BackgroundImageFix"/>
<feBlend mode="normal" in="SourceGraphic" in2="BackgroundImageFix" result="shape"/>
<feGaussianBlur stdDeviation="1.95" result="effect1_foregroundBlur_2253_6592"/>
</filter>
<filter id="filter3_i_2253_6592" x="1665.67" y="1547.38" width="3187.47" height="3549.54" filterUnits="userSpaceOnUse" color-interpolation-filters="sRGB">
<feFlood flood-opacity="0" result="BackgroundImageFix"/>
<feBlend mode="normal" in="SourceGraphic" in2="BackgroundImageFix" result="shape"/>
<feColorMatrix in="SourceAlpha" type="matrix" values="0 0 0 0 0 0 0 0 0 0 0 0 0 0 0 0 0 0 127 0" result="hardAlpha"/>
<feOffset dy="13"/>
<feGaussianBlur stdDeviation="2"/>
<feComposite in2="hardAlpha" operator="arithmetic" k2="-1" k3="1"/>
<feColorMatrix type="matrix" values="0 0 0 0 0.984314 0 0 0 0 0.964706 0 0 0 0 0.584314 0 0 0 1 0"/>
<feBlend mode="normal" in2="shape" result="effect1_innerShadow_2253_6592"/>
</filter>
<linearGradient id="paint0_linear_2253_6592" x1="3261" y1="0" x2="3261" y2="6522" gradientUnits="userSpaceOnUse">
<stop offset="0.274038" stop-color="#327E1A"/>
<stop offset="1" stop-color="#20590B"/>
</linearGradient>
<linearGradient id="paint1_linear_2253_6592" x1="3261" y1="374.056" x2="3261" y2="6147.94" gradientUnits="userSpaceOnUse">
<stop stop-color="#FFC416"/>
<stop offset="1" stop-color="#D39B00"/>
</linearGradient>
<linearGradient id="paint2_linear_2253_6592" x1="3261" y1="783.279" x2="3261" y2="5738.72" gradientUnits="userSpaceOnUse">
<stop stop-color="#327E1A"/>
<stop offset="1" stop-color="#20590B"/>
</linearGradient>
<linearGradient id="paint3_linear_2253_6592" x1="3259.4" y1="1547.38" x2="3259.4" y2="5092.91" gradientUnits="userSpaceOnUse">
<stop stop-color="#FDE663"/>
<stop offset="0.197115" stop-color="#EBA100"/>
<stop offset="0.21" stop-color="#FFE732"/>
<stop offset="0.330962" stop-color="#F5DD7F"/>
<stop offset="0.451923" stop-color="#F0AE00"/>
<stop offset="0.663462" stop-color="#F0AE00"/>
<stop offset="1" stop-color="#DFA200"/>
</linearGradient>
</defs>
</svg>
